<svg xmlns="http://www.w3.org/2000/svg" viewBox="0 0 98.53 12.09"><defs><style>.cls-1{fill:#fff;}</style></defs><g id="Layer_2" data-name="Layer 2"><g id="Layer_2-2" data-name="Layer 2"><path class="cls-1" d="M0,7.65A4.23,4.23,0,0,1,4.43,3.32,4.22,4.22,0,0,1,8.84,7.65,4.23,4.23,0,0,1,4.43,12,4.24,4.24,0,0,1,0,7.65Zm7.28,0a2.79,2.79,0,0,0-2.85-3,2.8,2.8,0,0,0-2.87,3,2.81,2.81,0,0,0,2.87,3A2.8,2.8,0,0,0,7.28,7.65Z"/><path class="cls-1" d="M9.81,7.65A4.25,4.25,0,0,1,14.3,3.32a3.81,3.81,0,0,1,3.47,1.81l-1.17.76a2.66,2.66,0,0,0-2.32-1.22,2.82,2.82,0,0,0-2.92,3,2.82,2.82,0,0,0,2.92,3A2.66,2.66,0,0,0,16.6,9.43l1.17.74A3.81,3.81,0,0,1,14.3,12,4.26,4.26,0,0,1,9.81,7.65Z"/><path class="cls-1" d="M26.11,6.77v5.14H24.65V10.78A3.15,3.15,0,0,1,21.86,12c-1.92,0-3.14-1-3.14-2.5S19.6,7,22.13,7h2.44v-.3c0-1.3-.75-2.06-2.27-2.06a4.31,4.31,0,0,0-2.7.92L19,4.41a5.69,5.69,0,0,1,3.51-1.09C24.8,3.32,26.11,4.44,26.11,6.77ZM24.57,9.31V8.12H22.2c-1.52,0-2,.59-2,1.31s.71,1.38,1.88,1.38A2.45,2.45,0,0,0,24.57,9.31Z"/><path class="cls-1" d="M28.59,0h1.54V11.91H28.59Z"/><path class="cls-1" d="M39.42,6.77v5.14H38V10.78A3.15,3.15,0,0,1,35.17,12C33.24,12,32,11,32,9.5S32.91,7,35.44,7h2.44v-.3c0-1.3-.75-2.06-2.28-2.06a4.3,4.3,0,0,0-2.69.92l-.64-1.16a5.69,5.69,0,0,1,3.51-1.09C38.11,3.32,39.42,4.44,39.42,6.77ZM37.88,9.31V8.12H35.51c-1.53,0-2,.59-2,1.31s.71,1.38,1.88,1.38A2.45,2.45,0,0,0,37.88,9.31Z"/><path class="cls-1" d="M41.4,10.94a1.1,1.1,0,0,1,1.12-1.12,1.08,1.08,0,0,1,1.09,1.12,1.1,1.1,0,0,1-1.09,1.15A1.12,1.12,0,0,1,41.4,10.94Z"/><path class="cls-1" d="M44.31,7.62a4.33,4.33,0,0,1,4.63-4.38,3.86,3.86,0,0,1,3.66,2l-1.54.9a2.41,2.41,0,0,0-2.13-1.19,2.52,2.52,0,0,0-2.6,2.68,2.5,2.5,0,0,0,2.6,2.68,2.41,2.41,0,0,0,2.13-1.19l1.54.9a3.89,3.89,0,0,1-3.66,2A4.34,4.34,0,0,1,44.31,7.62Z"/><path class="cls-1" d="M62.31,7v4.91h-2V7.25c0-1.52-.76-2.26-2-2.26a2.27,2.27,0,0,0-2.39,2.58v4.34h-2V0h2V4.33a3.84,3.84,0,0,1,2.85-1.09C60.79,3.24,62.31,4.41,62.31,7Z"/><path class="cls-1" d="M72.78,3.34v8.57H70.87v-1.1A3.49,3.49,0,0,1,68.11,12c-2.2,0-3.69-1.21-3.69-3.79V3.34h2V8c0,1.55.73,2.29,2,2.29s2.34-.86,2.34-2.58V3.34Z"/><path class="cls-1" d="M80,3.24V5.15a2.79,2.79,0,0,0-.47-.05A2.33,2.33,0,0,0,77,7.75v4.16H75V3.34h1.91V4.59A3.37,3.37,0,0,1,80,3.24Z"/><path class="cls-1" d="M80.52,7.62a4.34,4.34,0,0,1,4.64-4.38,3.86,3.86,0,0,1,3.66,2l-1.54.9a2.44,2.44,0,0,0-2.14-1.19,2.52,2.52,0,0,0-2.6,2.68,2.51,2.51,0,0,0,2.6,2.68,2.44,2.44,0,0,0,2.14-1.19l1.54.9a3.89,3.89,0,0,1-3.66,2A4.35,4.35,0,0,1,80.52,7.62Z"/><path class="cls-1" d="M98.53,7v4.91h-2V7.25c0-1.52-.75-2.26-2-2.26a2.28,2.28,0,0,0-2.39,2.58v4.34h-2V0h2V4.33A3.85,3.85,0,0,1,95,3.24C97,3.24,98.53,4.41,98.53,7Z"/></g></g></svg>